<svg width="80" height="80" viewBox="0 0 80 80" fill="none" xmlns="http://www.w3.org/2000/svg">
<path d="M41.5499 32.312C14.4627 30.2737 18.8391 3.11084 18.8391 3.11084H4.88132C1.58837 15.4738 11.1486 45.5611 37.8533 47.0456C64.643 48.53 61.4987 76.8893 61.4987 76.8893H75.4566C77.3261 58.9876 68.637 34.3503 41.5499 32.312Z" fill="#FFD500"/>
<path d="M66.0664 35.591C74.0119 26.7509 76.6888 15.7618 75.4566 3.11084H61.4987C61.4987 3.8953 61.5034 4.67732 61.5082 5.45758C61.5176 7.01337 61.527 8.56268 61.4987 10.112C61.35 17.5342 58.0571 24.0702 52.8734 28.1467C57.6959 29.7199 62.0936 32.1791 66.0664 35.591Z" fill="#FFD500"/>
<path d="M14.399 44.3204C6.41093 53.1605 3.60659 64.1276 4.86005 76.8671H18.8817C18.8817 75.9312 18.8618 74.9974 18.8419 74.0668C18.8003 72.1117 18.759 70.17 18.9029 68.2485C19.434 61.3359 22.7057 55.4424 27.507 51.6983C22.7269 50.1473 18.3293 47.6881 14.399 44.2982V44.3204Z" fill="#FFD500"/>
</svg>
